<svg width="103" height="32" viewBox="0 0 103 32" fill="none" xmlns="http://www.w3.org/2000/svg">
<path d="M44.36 21.438L39.42 22.556L38.822 25H35.338L39.888 6.8H44.178L48.728 25H45.27L44.36 21.438ZM43.632 18.448L42.046 11.012L40.252 19.202L43.632 18.448ZM50.4184 25V6.8H54.6304C56.0344 6.8 57.1784 7.07733 58.0624 7.632C58.9637 8.16933 59.6571 8.87133 60.1424 9.738C60.6451 10.6047 60.9831 11.584 61.1564 12.676C61.3471 13.7507 61.4424 14.8253 61.4424 15.9C61.4424 16.9747 61.3471 18.058 61.1564 19.15C60.9831 20.2247 60.6451 21.1953 60.1424 22.062C59.6571 22.9287 58.9637 23.6393 58.0624 24.194C57.1784 24.7313 56.0344 25 54.6304 25H50.4184ZM54.8124 21.828C55.4537 21.828 55.9824 21.6893 56.3984 21.412C56.8144 21.1347 57.1437 20.7447 57.3864 20.242C57.6464 19.722 57.8197 19.098 57.9064 18.37C58.0104 17.642 58.0624 16.8187 58.0624 15.9C58.0624 14.9813 58.0104 14.158 57.9064 13.43C57.8197 12.6847 57.6464 12.0607 57.3864 11.558C57.1437 11.038 56.8144 10.6393 56.3984 10.362C55.9824 10.0847 55.4537 9.946 54.8124 9.946H53.7984V21.828H54.8124ZM68.9081 20.788L72.1061 6.8H75.5641L71.0661 25H66.7761L62.2521 6.8H65.7361L68.9081 20.788Z" fill="black"/>
<path d="M80.4803 6.8V20.008C80.4803 20.6667 80.671 21.1953 81.0523 21.594C81.4336 21.9927 81.9536 22.192 82.6123 22.192C83.271 22.192 83.8083 21.9927 84.2243 21.594C84.6576 21.1953 84.8743 20.6667 84.8743 20.008V6.8H88.2543V19.826C88.2543 20.658 88.1156 21.4207 87.8383 22.114C87.5783 22.79 87.2056 23.3707 86.7203 23.856C86.235 24.324 85.6456 24.6967 84.9523 24.974C84.259 25.234 83.479 25.364 82.6123 25.364C81.7803 25.364 81.0263 25.234 80.3503 24.974C79.6743 24.6967 79.0936 24.324 78.6083 23.856C78.123 23.3707 77.7503 22.79 77.4903 22.114C77.2303 21.4207 77.1003 20.658 77.1003 19.826V6.8H80.4803ZM90.7641 6.8H97.0041C97.7841 6.8 98.4948 6.93 99.1361 7.19C99.7774 7.43267 100.323 7.788 100.774 8.256C101.225 8.70667 101.571 9.26133 101.814 9.92C102.074 10.5613 102.204 11.2807 102.204 12.078C102.204 12.7713 102.091 13.43 101.866 14.054C101.658 14.678 101.346 15.2327 100.93 15.718C100.531 16.2033 100.046 16.6107 99.4741 16.94C98.9194 17.2693 98.2954 17.5033 97.6021 17.642L94.1441 18.318V25H90.7641V6.8ZM94.1441 9.946V15.094L96.7961 14.548C97.4028 14.4267 97.8881 14.1407 98.2521 13.69C98.6334 13.2393 98.8241 12.6933 98.8241 12.052C98.8241 11.428 98.6248 10.9253 98.2261 10.544C97.8448 10.1453 97.3421 9.946 96.7181 9.946H94.1441Z" fill="#FF3F62"/>
<circle cx="6.72727" cy="23.0909" r="4.72727" fill="black"/>
<circle cx="17.3637" cy="25.4545" r="3.54545" fill="black"/>
<circle cx="5.54545" cy="12.4545" r="3.54545" fill="black"/>
<circle cx="11.4546" cy="6.54546" r="2.36364" fill="black"/>
<circle cx="24.4546" cy="20.7273" r="2.36364" fill="black"/>
<path d="M28 13.0455L15.5909 18.3636L12.6364 15.4091L19.7273 3L28 13.0455Z" fill="#FF3F62"/>
</svg>
