<svg width="26" height="26" viewBox="0 0 26 26" fill="none" xmlns="http://www.w3.org/2000/svg">
<path fill-rule="evenodd" clip-rule="evenodd" d="M24.6137 6.70312C24.7945 6.13031 24.6137 5.71391 23.8139 5.71391H21.1545C20.4836 5.71391 20.1739 6.07852 19.9931 6.46852C19.9931 6.46852 18.625 9.79977 16.7146 11.9595C16.0951 12.5841 15.8112 12.7923 15.4756 12.7923C15.2948 12.7923 15.0622 12.5841 15.0622 12.0118V6.67621C15.0622 5.9998 14.8561 5.6875 14.2878 5.6875H10.1055C9.69211 5.6875 9.43414 5.9998 9.43414 6.31211C9.43414 6.96262 10.3893 7.11902 10.4924 8.94055V12.8984C10.4924 13.7571 10.3401 13.9141 10.0019 13.9141C9.09848 13.9141 6.90422 10.5569 5.58797 6.73156C5.33203 5.97391 5.07203 5.6875 4.4007 5.6875H1.7159C0.941484 5.6875 0.8125 6.0516 0.8125 6.44211C0.8125 7.14492 1.7159 10.6839 5.02023 15.3679C7.21449 18.5671 10.338 20.2866 13.1518 20.2866C14.8561 20.2866 15.0622 19.8961 15.0622 19.2456V16.8254C15.0622 16.0448 15.2171 15.9148 15.7595 15.9148C16.1464 15.9148 16.8436 16.1225 18.4184 17.6582C20.2252 19.4797 20.5349 20.3125 21.5419 20.3125H24.2008C24.9752 20.3125 25.3368 19.922 25.1301 19.1674C24.898 18.4128 24.02 17.32 22.8841 16.0189C22.2645 15.2907 21.3352 14.4838 21.0514 14.0933C20.6644 13.5728 20.7675 13.3646 21.0514 12.8964C21.0255 12.8964 24.2785 8.26414 24.6137 6.70109" fill="black"/>
</svg>
