<svg width="26" height="26" viewBox="0 0 26 26" fill="none" xmlns="http://www.w3.org/2000/svg">
<path d="M17.7394 3.52066C18.9954 3.52441 20.1988 4.025 21.0869 4.9131C21.975 5.80119 22.4756 7.00463 22.4793 8.26059V17.7394C22.4756 18.9954 21.975 20.1988 21.0869 21.0869C20.1988 21.975 18.9954 22.4756 17.7394 22.4793H8.26059C7.00463 22.4756 5.80119 21.975 4.9131 21.0869C4.025 20.1988 3.52441 18.9954 3.52066 17.7394V8.26059C3.52441 7.00463 4.025 5.80119 4.9131 4.9131C5.80119 4.025 7.00463 3.52441 8.26059 3.52066H17.7394ZM17.7394 1.625H8.26059C4.61094 1.625 1.625 4.61094 1.625 8.26059V17.7394C1.625 21.3891 4.61094 24.375 8.26059 24.375H17.7394C21.3891 24.375 24.375 21.3891 24.375 17.7394V8.26059C24.375 4.61094 21.3891 1.625 17.7394 1.625Z" fill="black"/>
<path d="M19.1613 8.26074C18.8801 8.26074 18.6052 8.17735 18.3713 8.02111C18.1375 7.86488 17.9553 7.64281 17.8476 7.383C17.74 7.12318 17.7119 6.83729 17.7667 6.56147C17.8216 6.28566 17.957 6.0323 18.1559 5.83345C18.3547 5.6346 18.6081 5.49918 18.8839 5.44431C19.1597 5.38945 19.4456 5.41761 19.7054 5.52523C19.9652 5.63284 20.1873 5.81509 20.3435 6.04892C20.4998 6.28274 20.5832 6.55765 20.5832 6.83887C20.5836 7.0257 20.5471 7.21078 20.4757 7.38347C20.4044 7.55616 20.2997 7.71307 20.1676 7.84518C20.0355 7.97729 19.8786 8.08201 19.7059 8.15333C19.5332 8.22464 19.3481 8.26114 19.1613 8.26074ZM13 9.20832C13.75 9.20832 14.4831 9.43071 15.1066 9.84736C15.7302 10.264 16.2162 10.8562 16.5032 11.5491C16.7902 12.242 16.8653 13.0044 16.719 13.7399C16.5727 14.4755 16.2115 15.1511 15.6812 15.6814C15.1509 16.2117 14.4753 16.5728 13.7398 16.7191C13.0042 16.8654 12.2418 16.7904 11.5489 16.5034C10.8561 16.2164 10.2639 15.7304 9.84721 15.1068C9.43055 14.4832 9.20817 13.7501 9.20817 13.0002C9.20924 11.9948 9.60908 11.031 10.32 10.3201C11.0308 9.60924 11.9947 9.2094 13 9.20832ZM13 7.31266C11.8751 7.31266 10.7755 7.64622 9.8402 8.27117C8.90489 8.89612 8.17591 9.78439 7.74544 10.8236C7.31496 11.8629 7.20233 13.0065 7.42179 14.1097C7.64124 15.213 8.18292 16.2264 8.97833 17.0218C9.77374 17.8172 10.7872 18.3589 11.8904 18.5784C12.9937 18.7978 14.1373 18.6852 15.1765 18.2547C16.2158 17.8242 17.104 17.0953 17.729 16.16C18.3539 15.2247 18.6875 14.125 18.6875 13.0002C18.6875 11.4917 18.0883 10.0451 17.0217 8.97849C15.9551 7.91187 14.5084 7.31266 13 7.31266Z" fill="black"/>
</svg>
