<svg width="632" height="872" viewBox="0 0 632 872" fill="none" xmlns="http://www.w3.org/2000/svg">
<path d="M-164.777 564.567L-78.1432 201.527L469.162 529.352L364.221 788.504L-164.777 564.567Z" fill="#FF3F62"/>
<path d="M204.939 586.749L-78.1432 201.527L469.162 529.352L204.939 586.749Z" fill="#7B1527"/>
<path d="M455.755 260.59L-78.1429 201.527L469.162 529.352L455.755 260.59Z" fill="#B3203A"/>
<path d="M204.939 586.749L37.047 358.28L72.645 252.998L442.606 454.442L387.969 546.99L204.939 586.749Z" fill="white"/>
<path d="M89.924 335.919L94.0539 303.296L394.434 478.295L384.975 491.568L89.924 335.919Z" fill="#E7E7E7"/>
<path d="M115.151 387.251L101.254 412.465L340.364 513.167L342.049 497.217L115.151 387.251Z" fill="#E7E7E7"/>
</svg>
