<svg width="453" height="544" viewBox="0 0 453 544" fill="none" xmlns="http://www.w3.org/2000/svg">
<path d="M491.993 309.376L400.131 104.533L113.407 359.571L204.452 500.969L491.993 309.376Z" fill="#FF3F62"/>
<path d="M275.985 363.896L400.131 104.533L113.407 359.571L275.985 363.896Z" fill="#7B1527"/>
<path d="M91.227 199.238L400.131 104.533L113.407 359.571L91.227 199.238Z" fill="#B3203A"/>
<path d="M275.985 363.896L349.614 210.072L316.784 151.84L120.71 312.327L163.366 360.9L275.985 363.896Z" fill="white"/>
<path d="M315.861 202.779L309.766 183.962L151.85 321.027L158.927 327.812L315.861 202.779Z" fill="#E7E7E7"/>
<path d="M306.702 235.94L317.739 249.285L187.71 335.579L184.928 326.342L306.702 235.94Z" fill="#E7E7E7"/>
</svg>
