<svg width="120" height="37" viewBox="0 0 120 37" fill="none" xmlns="http://www.w3.org/2000/svg">
<path d="M51.4194 24.8501L45.664 26.1526L44.9673 29H40.9083L46.2093 7.79612H51.2073L56.5083 29H52.4796L51.4194 24.8501ZM50.5712 21.3666L48.7235 12.7033L46.6334 22.245L50.5712 21.3666ZM58.4777 29V7.79612H63.3849C65.0206 7.79612 66.3534 8.11922 67.3833 8.76544C68.4334 9.39146 69.2412 10.2093 69.8066 11.219C70.3923 12.2287 70.7861 13.3697 70.988 14.6419C71.2101 15.894 71.3212 17.146 71.3212 18.3981C71.3212 19.6501 71.2101 20.9122 70.988 22.1845C70.7861 23.4365 70.3923 24.5674 69.8066 25.5771C69.2412 26.5868 68.4334 27.4148 67.3833 28.061C66.3534 28.687 65.0206 29 63.3849 29H58.4777ZM63.5969 25.3045C64.3441 25.3045 64.96 25.1429 65.4447 24.8198C65.9294 24.4967 66.3131 24.0423 66.5958 23.4567C66.8987 22.8509 67.1006 22.1239 67.2016 21.2757C67.3228 20.4276 67.3833 19.4683 67.3833 18.3981C67.3833 17.3278 67.3228 16.3685 67.2016 15.5204C67.1006 14.652 66.8987 13.925 66.5958 13.3394C66.3131 12.7336 65.9294 12.2691 65.4447 11.946C64.96 11.6229 64.3441 11.4614 63.5969 11.4614H62.4156V25.3045H63.5969ZM80.0191 24.0928L83.7449 7.79612H87.7736L82.5332 29H77.5352L72.2645 7.79612H76.3235L80.0191 24.0928ZM93.5013 7.79612V23.1841C93.5013 23.9515 93.7234 24.5674 94.1677 25.0318C94.612 25.4963 95.2178 25.7285 95.9852 25.7285C96.7525 25.7285 97.3786 25.4963 97.8632 25.0318C98.3681 24.5674 98.6205 23.9515 98.6205 23.1841V7.79612H102.558V22.972C102.558 23.9414 102.397 24.8299 102.074 25.6377C101.771 26.4252 101.337 27.1017 100.771 27.6672C100.206 28.2124 99.5191 28.6466 98.7114 28.9697C97.9036 29.2726 96.9949 29.4241 95.9852 29.4241C95.0158 29.4241 94.1374 29.2726 93.3498 28.9697C92.5622 28.6466 91.8857 28.2124 91.3203 27.6672C90.7549 27.1017 90.3207 26.4252 90.0178 25.6377C89.7149 24.8299 89.5634 23.9414 89.5634 22.972V7.79612H93.5013ZM105.482 7.79612H112.752C113.661 7.79612 114.489 7.94757 115.236 8.25049C115.983 8.5332 116.62 8.94719 117.145 9.49243C117.67 10.0175 118.073 10.6637 118.356 11.4311C118.659 12.1783 118.811 13.0163 118.811 13.9452C118.811 14.753 118.679 15.5204 118.417 16.2474C118.174 16.9744 117.811 17.6206 117.326 18.186C116.862 18.7515 116.296 19.226 115.63 19.6097C114.984 19.9934 114.257 20.266 113.449 20.4276L109.42 21.2151V29H105.482V7.79612ZM109.42 11.4614V17.459L112.51 16.8229C113.217 16.6816 113.782 16.3483 114.206 15.8233C114.651 15.2983 114.873 14.6621 114.873 13.915C114.873 13.188 114.64 12.6023 114.176 12.1581C113.732 11.6936 113.146 11.4614 112.419 11.4614H109.42Z" fill="black"/>
<ellipse cx="7.78715" cy="26.9025" rx="5.47208" ry="5.5075" fill="black"/>
<ellipse cx="20.0993" cy="29.656" rx="4.10406" ry="4.13063" fill="black"/>
<ellipse cx="6.41913" cy="14.5105" rx="4.10406" ry="4.13063" fill="black"/>
<ellipse cx="13.2592" cy="7.62582" rx="2.73604" ry="2.75375" fill="black"/>
<ellipse cx="28.3075" cy="24.1488" rx="2.73604" ry="2.75375" fill="black"/>
<path d="M32.4115 15.1991L18.0473 21.395L14.6272 17.9528L22.8354 3.49564L32.4115 15.1991Z" fill="black"/>
</svg>
