<svg width="26" height="26" viewBox="0 0 26 26" fill="none" xmlns="http://www.w3.org/2000/svg">
<path d="M3.41135 11.8392L17.1108 6.49631C18.4631 5.9398 23.0493 4.15889 23.0493 4.15889C23.0493 4.15889 25.166 3.37981 24.9895 5.27192C24.9307 6.05101 24.4606 8.77821 23.99 11.7277L22.5202 20.4653C22.5202 20.4653 22.4026 21.7454 21.4013 21.9679C20.4001 22.1905 18.7555 21.1889 18.4618 20.9661C18.2266 20.7992 14.052 18.2948 12.5232 17.0704C12.1116 16.7366 11.6414 16.0686 12.5821 15.2895C14.6988 13.4529 17.2271 11.171 18.7555 9.72402C19.4611 9.05614 20.1667 7.49781 17.2269 9.39024L8.93673 14.6774C8.93673 14.6774 7.99586 15.234 6.23211 14.7331C4.46835 14.2323 2.41047 13.5644 2.41047 13.5644C2.41047 13.5644 0.999326 12.7296 3.40999 11.8393L3.41135 11.8392Z" fill="black"/>
</svg>
