<svg width="26" height="26" viewBox="0 0 26 26" fill="none" xmlns="http://www.w3.org/2000/svg">
<path d="M25.1875 5.56056C24.2732 5.95784 23.3057 6.21959 22.3158 6.33751C23.3562 5.72833 24.1385 4.76053 24.5162 3.61563C23.5326 4.19078 22.4583 4.59433 21.3393 4.80899C20.8681 4.31516 20.3014 3.9223 19.6736 3.6543C19.0459 3.3863 18.3702 3.24875 17.6876 3.25001C14.9241 3.25001 12.6877 5.45391 12.6877 8.17071C12.6857 8.54861 12.729 8.92538 12.8167 9.29298C10.835 9.20008 8.8946 8.69456 7.11952 7.80877C5.34444 6.92298 3.7738 5.67642 2.50809 4.14884C2.06404 4.89741 1.82921 5.75151 1.82812 6.62188C1.82812 8.32813 2.71832 9.83634 4.0625 10.7199C3.26611 10.701 2.48604 10.4902 1.78852 10.1055V10.1664C1.78852 12.5531 3.51508 14.5387 5.80023 14.9906C5.37051 15.1052 4.92769 15.1632 4.48297 15.1633C4.1674 15.1638 3.85255 15.1332 3.54301 15.0719C4.17828 17.027 6.02723 18.4488 8.21742 18.4895C6.43773 19.861 4.25274 20.6023 2.00586 20.5969C1.60703 20.5963 1.20858 20.5726 0.8125 20.5258C3.09826 21.9854 5.75527 22.7574 8.46727 22.75C17.677 22.75 22.7084 15.2496 22.7084 8.74454C22.7084 8.53126 22.7028 8.31798 22.6926 8.10977C23.6692 7.41512 24.514 6.55186 25.1875 5.56056Z" fill="black"/>
</svg>
